<?xml version="1.0" standalone="no"?>
<!DOCTYPE svg PUBLIC "-//W3C//DTD SVG 20010904//EN"
 "http://www.w3.org/TR/2001/REC-SVG-20010904/DTD/svg10.dtd">
<svg version="1.0" xmlns="http://www.w3.org/2000/svg"
 width="960.000000pt" height="960.000000pt" viewBox="0 0 960.000000 960.000000"
 preserveAspectRatio="xMidYMid meet">
<metadata>
Created by potrace 1.11, written by Peter Selinger 2001-2013
</metadata>
<g transform="translate(0.000000,960.000000) scale(0.100000,-0.100000)"
fill="#000000" stroke="none">
<path d="M4775 7999 c-4 -5 -10 -7 -15 -4 -11 7 -60 -4 -59 -14 2 -13 -14 -51
-20 -51 -4 0 -8 -6 -9 -12 0 -7 -3 -24 -7 -38 -11 -43 -16 -73 -20 -135 -3
-33 -6 -69 -8 -80 -5 -25 -26 -73 -26 -61 -1 4 -9 -2 -19 -14 -23 -28 -104
-36 -139 -14 -13 8 -23 12 -23 8 0 -14 -38 43 -42 61 -1 11 -6 22 -10 25 -3 3
-8 19 -11 35 -13 74 -57 169 -100 217 -17 20 -30 26 -48 23 -13 -3 -38 -7 -54
-9 -17 -3 -37 -6 -45 -8 -17 -3 -41 -32 -39 -45 1 -4 -2 -17 -7 -28 -14 -32
-5 -249 11 -276 4 -5 2 -9 -2 -9 -5 0 -10 -12 -11 -27 -4 -49 -64 -93 -132
-98 -18 -1 -69 23 -86 39 -19 19 -44 73 -37 80 4 3 1 6 -5 6 -7 0 -18 16 -27
36 -20 48 -83 129 -126 162 -17 13 -60 2 -136 -34 l-32 -15 4 -77 c5 -95 10
-124 24 -151 7 -11 9 -21 5 -21 -3 0 -1 -6 5 -13 6 -8 8 -17 4 -20 -3 -4 -2
-7 3 -7 14 0 21 -62 12 -106 -6 -32 -57 -87 -81 -88 -12 -1 -26 -4 -32 -8 -13
-7 -105 22 -105 34 0 5 -13 22 -30 38 -17 16 -30 34 -30 39 0 6 -11 18 -25 27
-14 9 -25 21 -25 28 -1 11 -78 74 -118 95 -19 10 -27 9 -55 -11 -17 -12 -33
-26 -35 -30 -2 -4 -9 -8 -16 -8 -19 0 -57 -40 -50 -52 4 -6 8 -21 9 -32 5 -43
18 -86 27 -86 5 0 6 -4 3 -10 -3 -5 -2 -10 4 -10 6 0 8 -7 5 -15 -4 -8 -1 -15
6 -15 6 0 9 -4 6 -9 -3 -5 1 -14 9 -21 8 -7 15 -17 15 -22 0 -5 9 -21 20 -36
11 -15 23 -40 26 -56 3 -16 5 -31 6 -35 3 -15 -44 -113 -51 -106 -2 3 -10 0
-18 -7 -16 -13 -113 -19 -113 -7 0 5 -6 9 -14 9 -8 0 -27 12 -44 28 -50 46
-110 92 -121 92 -6 0 -11 5 -11 12 0 6 -3 9 -6 5 -4 -3 -13 0 -21 8 -7 8 -32
20 -53 26 -40 12 -40 12 -85 -34 -25 -26 -50 -47 -56 -47 -5 0 -8 -4 -5 -9 4
-5 2 -11 -3 -13 -5 -1 -1 -20 9 -40 10 -21 16 -38 13 -38 -4 0 2 -9 12 -20 10
-11 14 -20 10 -20 -4 0 2 -9 15 -20 13 -11 20 -20 17 -20 -8 0 17 -32 62 -79
67 -68 72 -171 12 -225 -11 -11 -21 -16 -21 -11 0 4 -6 3 -12 -2 -16 -13 -108
-14 -108 -2 0 5 -9 9 -20 9 -11 0 -20 3 -20 8 0 4 -24 18 -53 32 -28 14 -54
28 -57 31 -9 10 -103 34 -135 34 -23 0 -35 -8 -52 -33 -13 -18 -23 -37 -23
-42 0 -6 -4 -10 -8 -10 -5 0 -14 -11 -22 -24 -11 -21 -10 -28 9 -54 11 -17 21
-33 21 -36 0 -10 82 -86 92 -86 5 0 6 -4 3 -10 -3 -5 0 -10 7 -10 8 0 20 -9
28 -20 8 -11 19 -20 24 -20 12 0 66 -60 67 -74 7 -83 4 -100 -20 -130 -33 -39
-55 -57 -59 -46 -2 4 -15 5 -30 1 -32 -8 -39 -8 -76 8 -16 6 -31 9 -34 7 -2
-3 -14 0 -26 6 -11 7 -24 13 -28 14 -5 1 -9 2 -10 4 -16 12 -150 19 -176 8
-15 -6 -31 -10 -37 -9 -5 2 -7 -1 -3 -5 4 -4 3 -13 -3 -21 -6 -7 -9 -13 -5
-13 4 0 -3 -18 -14 -40 -11 -21 -20 -43 -20 -47 0 -9 55 -69 91 -98 25 -21 41
-30 130 -77 84 -44 103 -67 105 -136 1 -38 -4 -63 -14 -74 -8 -10 -11 -18 -6
-18 5 0 -8 -9 -28 -20 -27 -14 -54 -19 -107 -18 -39 1 -71 4 -71 8 0 9 -32 6
-48 -4 -6 -4 -12 -3 -12 2 0 11 -62 7 -141 -10 -31 -7 -46 -31 -55 -88 -2 -14
-6 -36 -8 -49 -4 -15 1 -32 11 -43 19 -22 114 -77 140 -83 10 -2 31 -8 46 -14
15 -6 42 -13 59 -16 100 -18 150 -102 116 -195 -11 -29 -43 -62 -52 -53 -3 4
-6 2 -6 -3 0 -6 -18 -11 -39 -12 -21 -2 -54 -5 -72 -8 -19 -3 -54 -6 -79 -7
-25 -1 -47 -5 -50 -9 -3 -4 -16 -9 -28 -11 -12 -2 -28 -9 -34 -15 -7 -7 -18
-12 -24 -12 -22 0 -28 -23 -30 -103 l-1 -78 38 -20 c21 -10 50 -20 64 -21 14
-1 25 -6 25 -11 0 -5 11 -7 25 -5 14 3 25 1 25 -3 0 -5 6 -6 14 -3 8 3 24 1
35 -5 13 -8 22 -8 26 -1 4 6 11 8 16 4 5 -3 27 -7 49 -8 21 -2 46 -10 55 -20
9 -9 20 -16 25 -16 9 0 20 -27 19 -44 0 -5 5 -13 13 -17 9 -6 9 -9 1 -9 -7 0
-10 -9 -7 -22 9 -48 -27 -106 -71 -118 -5 -1 -21 -7 -35 -12 -14 -6 -38 -12
-55 -15 -16 -3 -33 -10 -37 -16 -5 -8 -8 -8 -8 2 0 11 -4 9 -15 -5 -8 -10 -15
-15 -15 -11 0 4 -10 2 -22 -5 -13 -7 -26 -11 -30 -10 -5 1 -8 -3 -8 -8 0 -6
-7 -10 -15 -10 -8 0 -15 -5 -15 -11 0 -5 -4 -7 -10 -4 -5 3 -10 -1 -10 -10 0
-9 -4 -14 -9 -11 -20 13 -28 -37 -16 -99 3 -16 7 -39 9 -49 2 -17 25 -32 66
-43 38 -10 211 -5 225 7 8 7 15 8 15 3 0 -6 20 -9 45 -8 38 1 51 -3 84 -32 22
-18 39 -41 39 -51 -1 -9 2 -27 6 -39 5 -15 3 -23 -4 -23 -6 0 -9 -4 -6 -8 3
-5 -1 -20 -9 -35 -7 -14 -11 -28 -9 -30 3 -2 -10 -10 -28 -17 -18 -8 -45 -22
-59 -31 -14 -10 -29 -16 -33 -12 -3 3 -6 1 -6 -5 0 -7 -3 -11 -7 -10 -12 4
-59 -31 -121 -89 -51 -47 -55 -54 -45 -75 13 -28 26 -60 27 -70 1 -4 11 -20
24 -36 17 -21 31 -27 55 -25 38 3 112 11 112 13 0 1 8 3 18 6 9 2 23 6 30 8
87 24 107 31 107 36 0 8 76 -4 105 -16 23 -9 61 -55 57 -67 -1 -5 1 -14 6 -21
7 -9 9 -31 3 -38 -2 -2 -4 -14 -7 -27 -4 -21 -44 -82 -44 -67 0 4 -11 -4 -24
-18 -13 -15 -27 -26 -32 -26 -5 0 -20 -12 -33 -25 -13 -14 -27 -25 -32 -25 -5
0 -9 -5 -9 -10 0 -6 -13 -24 -29 -40 -16 -17 -36 -45 -44 -62 -15 -30 -14 -33
18 -79 58 -84 58 -84 129 -70 33 7 62 17 64 21 2 5 10 6 18 3 8 -3 14 0 14 6
0 6 9 11 19 11 11 0 26 6 33 14 30 29 116 65 152 63 20 -1 36 -5 36 -9 0 -5 3
-7 8 -7 33 5 71 -42 78 -96 6 -53 -20 -106 -87 -174 -23 -24 -63 -84 -65 -98
-1 -7 -9 -20 -18 -29 -14 -13 -19 -34 -15 -60 0 -4 -5 -11 -13 -15 -7 -5 -8
-9 -2 -9 6 0 37 -26 68 -57 31 -32 60 -53 64 -48 6 9 19 14 48 19 6 1 19 10
28 19 10 9 22 15 27 12 5 -4 9 -1 9 4 0 6 7 11 15 11 8 0 15 5 15 10 0 6 4 10
9 10 5 0 22 12 38 27 51 49 83 73 97 73 8 0 17 4 21 9 3 6 18 8 33 7 15 -2 35
-4 45 -5 10 0 33 -16 50 -35 49 -52 52 -123 8 -185 -12 -16 -21 -34 -21 -40 0
-6 -3 -11 -8 -11 -8 0 -50 -101 -57 -135 -2 -11 -4 -20 -5 -20 -1 0 -4 -12 -6
-27 -1 -16 1 -28 6 -28 5 0 11 -8 14 -18 3 -9 22 -26 43 -37 20 -11 43 -26 51
-34 12 -12 18 -11 47 5 52 30 190 166 190 188 0 14 65 56 86 56 11 0 19 4 19
9 0 5 18 4 41 -1 46 -12 98 -59 100 -91 4 -60 3 -74 -9 -99 -7 -16 -10 -28 -7
-28 3 0 -1 -15 -9 -34 -8 -19 -12 -37 -8 -40 3 -3 0 -6 -7 -6 -7 0 -9 -5 -6
-10 4 -6 1 -17 -5 -25 -10 -11 -10 -15 -1 -15 7 0 9 -5 6 -10 -12 -19 -16 -65
-10 -98 5 -29 14 -37 63 -58 31 -14 64 -29 73 -34 12 -6 23 -1 40 20 13 16 30
29 38 30 8 0 12 3 8 6 -3 3 3 16 15 28 24 25 84 128 80 139 -1 4 2 7 6 7 4 0
14 16 21 35 7 19 19 35 27 35 8 0 14 5 14 11 0 5 4 8 9 4 5 -3 12 -1 16 5 4 6
10 8 15 5 5 -3 11 -1 15 4 8 14 93 -13 114 -36 24 -27 43 -73 30 -73 -8 0 -8
-4 -1 -13 7 -8 7 -18 2 -27 -5 -8 -5 -21 1 -31 5 -11 5 -20 0 -23 -5 -4 -9
-50 -9 -104 0 -102 18 -166 48 -168 8 -1 17 -3 20 -4 7 -2 29 -7 67 -14 25 -5
37 -1 56 16 25 24 59 73 64 92 6 25 65 193 76 219 6 15 18 27 24 27 7 0 13 5
13 11 0 5 4 8 9 4 5 -3 12 -1 15 4 6 10 68 8 107 -3 26 -8 61 -46 67 -74 2
-10 5 -42 6 -72 2 -30 5 -55 6 -55 1 0 3 -11 4 -25 2 -14 7 -41 11 -60 4 -19
8 -41 8 -47 0 -7 4 -13 9 -13 5 0 6 -5 3 -10 -3 -5 -1 -10 6 -10 7 0 10 -3 6
-6 -3 -3 3 -16 14 -28 17 -17 32 -21 91 -22 71 0 71 0 92 35 12 20 22 39 22
44 1 4 2 8 4 10 1 1 3 10 6 20 2 9 6 25 8 35 3 9 5 17 6 17 3 0 10 101 10 141
-1 25 6 48 15 58 9 8 16 18 15 21 -1 21 1 25 10 20 6 -3 10 2 10 11 0 10 3 15
6 11 3 -3 22 0 42 7 21 7 46 10 57 6 56 -18 84 -33 79 -42 -3 -5 2 -16 12 -23
11 -8 15 -15 10 -15 -5 0 -3 -6 3 -14 6 -8 11 -18 10 -22 -1 -5 0 -12 1 -16 1
-5 4 -12 5 -18 1 -5 4 -12 5 -15 1 -3 4 -9 5 -15 1 -5 3 -11 5 -12 2 -4 11
-41 12 -55 1 -7 4 -13 7 -13 3 0 12 -15 20 -32 8 -18 22 -41 32 -50 9 -9 19
-22 21 -28 4 -13 28 -15 88 -5 25 4 50 7 55 8 12 0 40 27 29 27 -3 0 -1 7 6
15 6 8 9 19 5 25 -3 5 -2 10 2 10 8 0 8 81 0 249 -2 51 2 70 19 100 13 20 24
34 26 31 2 -3 15 2 28 11 61 38 156 -8 186 -90 10 -28 22 -51 26 -51 4 0 8 -5
8 -11 0 -13 50 -84 92 -130 39 -42 59 -42 144 -2 43 20 53 29 49 43 -3 10 -1
21 4 24 5 4 8 16 5 29 -2 12 -5 37 -6 55 -1 17 -5 32 -10 32 -5 0 -6 4 -3 10
3 5 -5 42 -19 82 -29 89 -29 165 2 196 29 29 61 44 77 38 8 -3 17 -1 20 5 4 5
12 6 18 2 13 -8 18 -10 41 -12 17 -1 74 -51 60 -51 -5 0 -1 -5 9 -11 9 -5 17
-14 17 -20 0 -5 11 -21 25 -35 14 -14 25 -29 25 -34 0 -6 6 -10 14 -10 8 0 24
-13 37 -30 13 -16 36 -35 52 -41 15 -6 27 -15 27 -19 0 -5 6 -7 13 -6 21 3
125 75 135 93 9 14 3 52 -14 103 -3 8 -4 15 -2 16 2 0 -3 8 -11 17 -7 10 -11
17 -8 17 3 0 -15 37 -41 82 -40 70 -48 90 -46 129 1 26 10 58 19 73 19 28 73
62 83 52 3 -3 11 -1 19 5 9 9 13 8 13 0 0 -6 3 -10 8 -10 38 6 56 -4 133 -77
14 -13 29 -24 33 -24 4 0 16 -8 27 -18 10 -11 32 -25 47 -33 15 -8 30 -18 34
-24 4 -5 8 -7 8 -3 0 4 13 2 30 -3 28 -10 33 -8 88 49 46 46 57 63 50 76 -5 9
-6 16 -2 16 3 0 1 7 -6 15 -7 8 -9 15 -6 15 4 0 2 6 -4 12 -6 7 -25 35 -42 62
-18 27 -46 63 -63 80 -29 30 -60 84 -57 99 1 4 -2 7 -7 7 -13 0 -7 51 11 92
22 49 61 68 128 63 36 -3 66 -14 97 -34 25 -17 60 -35 79 -41 19 -7 34 -15 34
-19 0 -4 6 -8 13 -9 6 0 23 -3 37 -6 72 -16 75 -16 103 8 15 13 27 27 27 31 0
5 12 24 26 42 l26 35 -18 35 c-23 42 -152 175 -164 168 -5 -3 -11 4 -15 15 -3
11 -11 19 -17 17 -6 -1 -18 12 -27 28 -9 17 -19 32 -23 33 -11 5 -10 66 2 98
12 31 46 64 67 64 7 0 13 4 13 9 0 15 85 3 163 -23 78 -26 214 -40 238 -25 8
5 10 9 4 9 -7 0 -7 3 0 8 13 9 45 78 45 97 0 7 6 15 12 17 13 5 -69 97 -84 98
-8 0 -36 22 -64 48 -7 7 -17 13 -21 12 -12 0 -95 43 -111 58 -7 6 -18 12 -24
12 -6 0 -8 3 -5 7 4 3 1 13 -7 22 -15 18 -27 91 -14 91 4 0 8 8 8 18 0 23 46
72 69 72 10 0 21 3 25 7 10 11 56 15 56 5 0 -4 17 -8 38 -9 111 -5 170 -4 197
2 17 3 36 7 42 7 24 2 40 33 52 97 12 62 12 65 -11 86 -30 30 -165 98 -177 91
-5 -3 -11 -2 -13 4 -1 5 -18 10 -35 12 -18 1 -33 7 -33 12 0 5 -3 6 -7 3 -3
-4 -17 0 -30 8 -13 9 -23 12 -23 8 0 -15 -30 36 -43 74 -12 35 -11 44 4 79 10
21 24 46 31 56 15 17 96 35 193 42 74 4 77 5 139 36 l51 25 0 84 c0 73 -2 85
-20 95 -11 6 -22 13 -25 16 -6 6 -25 11 -72 17 -21 3 -38 10 -38 15 0 5 -9 4
-20 -2 -14 -7 -20 -7 -20 0 0 6 -28 10 -70 10 -40 0 -70 4 -70 10 0 6 -9 10
-20 10 -27 0 -52 32 -65 83 -9 36 -8 48 9 85 12 25 31 47 48 54 15 7 28 17 28
21 0 5 4 6 10 2 5 -3 35 3 67 14 32 11 61 17 65 15 5 -3 8 0 8 7 0 7 3 9 7 6
3 -4 15 0 25 10 10 9 18 13 18 9 0 -11 88 55 94 70 9 24 -16 128 -36 150 -12
13 -29 20 -49 19 -16 -1 -32 1 -34 5 -5 9 -157 7 -171 -2 -6 -4 -38 -6 -71 -4
-80 4 -122 40 -130 108 -8 72 16 110 95 150 73 36 73 36 120 74 17 14 32 23
32 20 0 -3 9 3 20 14 11 11 20 23 20 26 0 3 10 14 21 23 l22 17 -22 60 c-12
32 -29 65 -38 72 -9 6 -13 13 -7 13 5 1 -7 5 -26 8 -19 4 -53 3 -75 0 -22 -4
-54 -9 -71 -12 -17 -3 -41 -10 -53 -16 -11 -7 -21 -9 -21 -6 0 3 -9 1 -21 -5
-19 -11 -35 -15 -84 -21 -11 -2 -31 3 -44 10 -17 9 -21 10 -16 1 4 -7 -4 -5
-18 5 -22 14 -37 35 -41 55 -1 3 -4 10 -7 15 -13 23 -8 74 11 111 10 21 19 35
20 30 0 -5 10 2 23 15 18 19 105 95 136 119 3 3 12 14 19 25 7 11 21 33 32 50
18 28 18 31 3 55 -9 14 -23 37 -30 51 -7 15 -20 33 -29 40 -17 14 -114 20
-114 7 0 -4 -6 -8 -13 -8 -12 0 -106 -46 -191 -92 -28 -16 -70 -18 -116 -7
-18 5 -66 50 -68 64 -15 90 -2 125 79 215 27 30 49 60 49 67 0 6 3 13 8 15 12
5 52 88 52 108 0 10 -24 42 -52 72 -51 52 -54 54 -88 44 -19 -5 -38 -14 -41
-19 -3 -5 -10 -9 -15 -9 -15 0 -64 -32 -64 -41 0 -4 -5 -5 -10 -2 -6 3 -13 -1
-16 -9 -3 -9 -11 -16 -16 -16 -6 0 -23 -13 -38 -30 -15 -16 -33 -30 -38 -30
-6 0 -12 -5 -14 -11 -2 -6 -16 -12 -31 -12 -15 -1 -27 -6 -27 -11 0 -5 -7 -3
-15 4 -8 7 -15 8 -15 3 0 -21 -53 1 -86 35 -27 28 -33 41 -29 63 3 17 1 29 -5
29 -7 0 -8 5 -3 13 4 6 9 21 10 31 2 11 10 27 18 36 8 9 15 21 15 27 0 6 7 16
15 23 8 7 12 16 9 21 -3 5 -1 9 5 9 8 0 25 36 23 50 0 3 4 11 10 18 6 6 8 12
4 12 -4 0 0 13 8 29 9 16 12 31 9 34 -3 4 0 13 7 22 8 10 9 15 1 15 -6 0 -11
4 -11 10 0 15 -33 50 -47 50 -7 0 -13 4 -13 9 0 5 -13 14 -30 21 -16 7 -30 18
-30 24 0 8 -2 8 -8 0 -4 -6 -21 -18 -37 -27 -43 -21 -175 -154 -175 -175 0
-12 -52 -56 -70 -59 -99 -21 -160 7 -174 77 -1 3 -4 10 -8 16 -8 12 -2 69 9
87 4 6 8 17 8 22 1 6 4 17 7 25 24 59 44 226 29 247 -5 7 -58 35 -71 37 -3 1
-9 4 -15 7 -5 4 -24 10 -41 13 -27 6 -35 2 -75 -42 -55 -62 -90 -116 -90 -142
0 -3 -7 -9 -15 -13 -8 -5 -12 -12 -9 -18 4 -5 1 -9 -5 -9 -6 0 -8 -4 -5 -10 3
-5 1 -10 -5 -10 -6 0 -9 -4 -6 -9 6 -8 -47 -60 -62 -62 -4 0 -16 -3 -27 -5
-35 -9 -75 -4 -75 8 0 5 -4 7 -9 3 -13 -7 -60 40 -66 68 -11 48 -13 76 -7 82
8 7 9 23 15 138 2 42 0 77 -5 77 -5 0 -8 6 -7 13 4 31 -2 68 -10 63 -5 -3 -12
1 -15 10 -4 9 -13 14 -21 10 -8 -3 -15 -2 -15 2 0 5 -10 8 -22 9 -13 1 -36 4
-52 7 -22 5 -33 2 -50 -17 -34 -39 -51 -61 -55 -72 -2 -5 -5 -14 -7 -20 -2 -5
-9 -23 -16 -40 -6 -16 -13 -34 -13 -40 -1 -5 -7 -21 -12 -35 -6 -14 -8 -31 -6
-37 3 -7 0 -13 -6 -13 -6 0 -10 -3 -10 -7 1 -5 0 -11 -1 -15 -4 -13 -7 -27 -9
-38 0 -5 -8 -10 -16 -10 -8 0 -15 -4 -15 -10 0 -5 -7 -10 -15 -10 -8 0 -15 -4
-15 -9 0 -10 -88 -7 -115 4 -18 8 -50 42 -50 55 0 3 -4 11 -8 18 -5 7 -10 41
-12 75 -3 55 -8 97 -20 159 -3 11 -10 27 -17 36 -7 8 -11 16 -10 16 6 2 -20
56 -27 57 -3 1 -15 3 -26 5 -11 1 -30 5 -42 8 -13 2 -25 0 -28 -5z m-141 -728
c1 -40 -3 -55 -16 -62 -9 -5 -21 -9 -25 -8 -4 1 -10 0 -13 -1 -3 -1 -27 -4
-55 -6 -77 -7 -198 -21 -202 -25 -2 -1 -7 -3 -13 -4 -5 -1 -11 -3 -12 -5 -5
-3 -43 -12 -60 -13 -10 -1 -18 -5 -18 -9 0 -4 -9 -5 -20 -3 -11 2 -20 -1 -20
-6 0 -6 -4 -8 -8 -5 -5 3 -27 -1 -50 -9 -22 -8 -55 -17 -73 -20 -17 -3 -41
-11 -53 -18 -11 -6 -24 -12 -28 -13 -5 -1 -11 -3 -15 -4 -5 -1 -11 -2 -15 -1
-5 0 -8 -4 -8 -11 0 -6 -3 -8 -6 -5 -4 4 -20 -3 -37 -15 -17 -12 -27 -16 -22
-7 7 10 1 9 -19 -4 -15 -10 -30 -16 -33 -13 -3 3 -12 -1 -20 -9 -7 -8 -32 -19
-53 -25 -22 -6 -40 -15 -40 -20 0 -6 -6 -10 -13 -10 -7 0 -22 -8 -33 -17 -11
-10 -26 -19 -34 -21 -8 -2 -18 -9 -22 -15 -4 -7 -8 -8 -8 -4 0 5 -7 1 -16 -7
-8 -9 -20 -14 -25 -11 -5 4 -9 3 -9 -2 0 -4 -27 -24 -60 -43 -33 -19 -60 -38
-60 -42 0 -5 -5 -8 -11 -8 -6 0 -16 -6 -23 -12 -26 -25 -66 -58 -71 -58 -3 0
-14 -8 -24 -17 -33 -30 -50 -43 -58 -45 -5 0 -13 -8 -20 -17 -10 -14 -17 -11
-57 28 -35 34 -43 48 -35 58 6 7 15 10 20 7 5 -3 9 3 9 12 0 10 3 15 6 12 3
-4 14 1 23 10 38 36 72 62 81 62 6 0 10 4 10 8 0 9 105 84 115 83 5 -1 18 8
50 37 7 6 18 12 24 12 5 0 16 6 23 13 18 16 45 32 88 54 19 9 38 21 41 26 3 5
10 8 15 7 5 0 32 10 59 24 122 59 193 89 217 91 3 0 10 3 14 8 4 4 16 7 26 7
10 0 18 5 18 11 0 5 5 7 10 4 6 -4 17 -1 25 5 8 7 15 9 15 5 0 -4 7 -2 15 5 8
6 19 9 25 5 5 -3 10 -2 10 3 0 5 12 12 28 15 15 3 41 8 57 12 17 4 37 8 45 10
8 2 17 4 20 5 3 1 8 2 11 2 4 -1 22 3 40 9 19 6 50 13 69 16 19 3 39 9 44 13
5 5 19 5 32 0 15 -6 26 -5 30 1 3 6 22 9 40 7 19 -2 34 -1 34 3 0 4 20 7 45 6
24 0 48 2 52 6 16 17 26 -2 27 -52z m365 47 c11 -11 12 -10 6 1 -6 10 -4 12 5
6 7 -4 34 -10 59 -11 69 -6 192 -24 226 -34 33 -10 90 -21 118 -23 9 -1 17 -5
17 -9 0 -4 9 -5 20 -3 11 2 20 0 20 -5 0 -4 8 -7 18 -5 9 1 26 -2 37 -8 11 -6
27 -12 35 -13 8 -2 23 -7 35 -12 52 -24 77 -32 86 -27 5 4 9 1 9 -4 0 -6 3
-10 8 -9 4 1 21 -4 37 -11 17 -7 35 -14 40 -15 23 -4 75 -31 75 -39 0 -5 5 -5
10 -2 6 3 10 1 10 -4 0 -6 9 -11 20 -11 11 0 20 -4 20 -10 0 -5 8 -10 18 -10
10 0 27 -7 38 -15 10 -8 27 -15 37 -15 9 0 17 -4 17 -10 0 -5 6 -10 13 -10 8
0 22 -9 32 -20 10 -11 21 -17 26 -15 4 3 20 -6 35 -20 15 -14 33 -25 40 -25 7
0 14 -4 16 -8 2 -4 27 -23 57 -41 30 -18 60 -38 66 -44 36 -34 100 -82 107
-80 4 2 8 -4 8 -12 0 -8 7 -15 15 -15 8 0 15 -5 15 -11 0 -5 5 -7 10 -4 26 16
6 -29 -28 -64 l-38 -40 -107 80 c-59 44 -107 85 -107 90 0 6 -4 8 -9 5 -4 -3
-16 3 -26 14 -10 11 -26 20 -35 20 -10 0 -20 7 -24 15 -3 8 -12 15 -21 15 -8
0 -15 5 -15 12 0 6 -3 8 -6 5 -4 -4 -19 2 -34 13 -16 11 -32 20 -37 20 -5 0
-19 9 -32 21 -12 12 -28 22 -34 23 -7 1 -32 13 -57 26 -25 13 -49 25 -55 26
-5 1 -28 10 -50 19 -22 10 -42 19 -45 20 -3 1 -18 7 -33 13 -15 7 -39 15 -53
18 -13 3 -27 10 -30 15 -3 5 -16 9 -30 9 -13 0 -24 4 -24 8 0 4 -10 9 -22 10
-13 1 -30 4 -38 6 -8 2 -30 7 -47 11 -18 4 -33 10 -33 14 0 3 -10 6 -22 7 -22
1 -70 10 -75 15 -2 1 -7 3 -13 4 -5 1 -11 4 -12 5 -2 1 -16 3 -33 5 -16 2 -55
6 -85 10 -30 3 -67 7 -82 7 -16 1 -28 5 -28 8 0 4 -8 7 -17 7 -71 -1 -71 -1
-68 56 1 28 3 55 3 60 3 11 27 8 41 -5z m-248 -227 c30 -2 31 -31 2 -42 -31
-12 -54 -40 -44 -54 4 -5 7 -62 6 -125 0 -63 3 -122 8 -130 6 -11 25 -15 67
-14 32 1 63 4 68 8 13 8 20 86 9 86 -5 0 -5 6 1 13 6 6 11 17 11 22 1 12 21
14 40 4 18 -9 24 -168 7 -170 -6 -1 -72 -3 -146 -3 -74 -1 -139 -4 -145 -7 -5
-3 -21 -5 -35 -5 -37 1 -33 37 5 56 29 14 39 46 24 75 -3 6 -5 58 -4 117 1 59
-2 105 -7 102 -4 -3 -8 -1 -8 5 0 5 -9 8 -19 6 -21 -4 -34 16 -25 40 4 10 25
15 72 17 37 2 74 2 82 1 8 -1 22 -2 31 -2z m524 -82 c-5 -27 -14 -39 -30 -39
-7 0 -26 -15 -43 -34 -17 -19 -33 -33 -36 -30 -3 2 -4 1 -1 -2 2 -4 -2 -19
-10 -33 -20 -39 -14 -115 13 -150 25 -35 29 -76 7 -85 -8 -3 -15 -1 -15 4 0 6
-9 10 -20 10 -11 0 -20 5 -20 10 0 6 -7 10 -16 10 -8 0 -13 4 -10 9 3 5 -1 14
-9 21 -8 7 -15 21 -15 31 0 11 -4 19 -9 19 -10 0 -20 67 -12 76 3 3 6 17 7 32
1 15 3 28 4 30 1 1 3 5 4 10 7 29 19 52 27 52 5 0 9 7 9 15 0 8 7 15 15 15 8
0 15 5 15 10 0 6 6 10 14 10 8 0 16 6 19 13 3 9 24 13 60 14 49 0 55 -2 52
-18z m-949 -18 c39 -19 82 -60 87 -84 1 -6 5 -14 9 -17 14 -11 29 -118 17
-125 -4 -3 -10 -21 -13 -40 -4 -19 -11 -35 -16 -35 -5 0 -11 -8 -14 -18 -5
-16 -54 -52 -70 -52 -4 0 -11 12 -17 27 -8 21 -7 30 4 38 35 26 51 101 29 141
-6 12 -8 24 -5 28 3 3 -6 17 -20 30 -15 14 -27 29 -27 34 0 4 -15 14 -33 21
-19 8 -39 22 -46 33 -10 16 -10 19 1 12 10 -6 10 -4 -1 9 -12 15 -9 17 31 17
24 0 62 -9 84 -19z m1082 -1 c17 0 76 -61 78 -80 1 -6 2 -11 4 -12 17 -23 16
-168 -2 -168 -4 0 -8 -6 -8 -14 0 -18 -50 -73 -70 -78 -8 -2 -18 -7 -22 -12
-3 -5 -12 -11 -20 -12 -7 -1 -25 -4 -40 -7 -37 -7 -62 16 -46 43 7 10 16 17
20 14 4 -3 19 6 33 20 14 15 30 26 35 26 7 0 17 20 25 50 1 3 6 14 10 25 13
29 11 108 -3 113 -7 2 -12 10 -12 18 0 8 -7 17 -15 20 -18 7 -18 14 -4 51 6
16 13 22 16 16 3 -7 12 -13 21 -13z m-1299 -19 c7 -5 11 -13 7 -19 -3 -6 -2
-14 4 -17 6 -4 1 -18 -15 -37 -14 -17 -24 -37 -21 -44 3 -8 0 -14 -6 -14 -9 0
-9 -3 0 -12 7 -7 8 -17 2 -28 -7 -13 -5 -21 5 -30 7 -6 12 -17 9 -24 -7 -17
55 -81 97 -100 26 -12 35 -22 34 -39 -1 -17 -8 -22 -38 -22 -20 -1 -37 3 -37
7 0 5 -4 7 -9 3 -6 -3 -29 5 -53 19 -92 51 -126 187 -71 287 14 27 32 49 40
49 7 0 16 7 19 15 7 17 13 18 33 6z m-350 -184 c-24 -22 -24 -28 1 -58 12 -12
31 -39 42 -59 12 -19 41 -60 64 -91 24 -31 40 -60 36 -64 -4 -4 8 0 27 10 28
14 35 14 42 3 13 -20 6 -31 -44 -64 -25 -18 -44 -33 -43 -35 2 -2 -12 -11 -30
-20 -33 -16 -35 -16 -44 1 -7 14 -6 23 5 34 20 20 19 33 -5 58 -11 12 -20 28
-20 35 0 7 -3 13 -8 13 -4 0 -18 18 -32 40 -14 22 -28 40 -32 40 -5 0 -7 3 -6
8 3 10 -45 82 -55 82 -5 0 -6 -4 -2 -9 3 -5 1 -12 -4 -16 -11 -6 -9 -22 17
-126 5 -20 13 -42 17 -49 6 -9 4 -11 -4 -5 -9 5 -10 3 -2 -11 18 -35 31 -84
34 -131 0 -7 4 -13 9 -13 14 0 9 -27 -8 -41 -13 -10 -17 -10 -25 2 -5 8 -9 10
-9 6 0 -4 -12 4 -27 18 -15 14 -31 25 -34 25 -5 0 -23 13 -66 50 -7 6 -13 8
-13 5 0 -4 -7 0 -15 7 -32 29 -45 38 -53 38 -5 0 -17 9 -27 20 -10 11 -24 20
-32 20 -7 0 -13 5 -13 12 0 7 -7 5 -17 -6 -13 -13 -15 -20 -5 -23 6 -3 12 -11
12 -19 0 -8 5 -14 10 -14 6 0 10 -7 10 -15 0 -8 5 -15 10 -15 6 0 10 -5 10
-11 0 -6 14 -28 30 -49 17 -21 30 -41 30 -45 0 -3 7 -13 15 -21 8 -8 19 -22
24 -31 8 -15 11 -15 32 -2 20 14 24 14 38 0 15 -15 14 -18 -4 -36 -11 -11 -23
-19 -27 -17 -5 1 -8 -2 -8 -8 0 -5 -7 -10 -15 -10 -8 0 -15 -3 -15 -8 0 -4 -9
-13 -21 -20 -16 -10 -24 -10 -35 -1 -18 15 -18 39 1 39 20 0 19 35 -2 60 -10
11 -18 24 -17 28 0 4 -9 15 -20 24 -12 10 -17 17 -13 18 5 0 2 6 -5 14 -7 7
-20 24 -28 37 -8 12 -25 33 -37 46 -12 13 -19 23 -16 23 3 0 0 7 -7 15 -11 13
-14 13 -27 0 -18 -19 -27 -19 -43 0 -11 13 -9 19 8 36 12 11 22 17 22 14 0 -2
11 5 24 16 13 12 27 20 31 19 4 -1 13 7 21 17 7 10 14 14 14 10 0 -5 7 -1 16
7 14 15 20 13 62 -16 26 -17 49 -35 50 -40 2 -4 10 -8 18 -8 8 0 14 -4 14 -10
0 -5 7 -10 15 -10 8 0 15 -4 15 -8 0 -4 14 -16 31 -26 25 -15 33 -16 39 -5 5
7 4 21 -1 30 -5 10 -9 31 -9 48 0 17 -3 31 -7 31 -5 0 -9 19 -11 42 -1 23 -6
45 -10 48 -18 13 -12 57 13 80 14 13 25 20 25 16 0 -4 12 5 27 19 15 14 33 25
40 25 7 0 13 4 13 9 0 17 35 17 47 1 9 -12 7 -19 -8 -33z m2117 22 c3 -5 9 -7
14 -4 11 7 60 -15 60 -27 0 -4 4 -8 10 -8 12 0 55 -44 63 -64 7 -18 23 -21 32
-6 4 6 15 5 30 -2 l24 -11 -19 -25 c-11 -13 -20 -29 -20 -34 0 -19 -37 -48
-53 -42 -10 3 -17 10 -17 15 0 5 0 11 0 14 1 40 -77 134 -112 136 -10 1 -28 2
-40 3 -29 3 -74 -19 -87 -41 -6 -10 -11 -13 -11 -8 0 16 -42 -57 -46 -82 -2
-13 -6 -34 -8 -48 -3 -13 0 -27 5 -30 5 -4 9 -12 9 -20 0 -20 48 -66 74 -71
11 -2 22 -8 24 -13 2 -6 12 -7 27 -1 12 5 26 6 29 3 3 -4 6 -1 6 5 0 7 6 12
14 12 8 0 13 8 11 18 -2 9 -4 21 -4 26 -1 5 -4 6 -8 3 -12 -12 -32 27 -22 45
8 15 17 12 84 -25 77 -43 85 -56 53 -91 -60 -66 -213 -68 -289 -3 -10 9 -22
17 -25 17 -18 0 -59 64 -71 110 -9 33 -9 80 0 80 5 0 7 6 4 14 -3 8 -3 17 1
21 4 4 7 10 7 13 2 32 62 97 108 117 35 15 134 18 143 4z m443 -286 c1 -7 5
-13 11 -13 5 0 30 -20 55 -45 40 -40 43 -48 33 -65 -14 -22 -28 -26 -28 -8 0
6 -3 8 -7 5 -3 -4 -11 0 -18 9 -10 14 -15 12 -44 -13 -18 -15 -38 -34 -45 -40
-6 -7 -37 -41 -68 -74 -60 -64 -70 -91 -41 -107 16 -9 15 -12 -1 -37 l-18 -27
-69 71 c-38 39 -73 71 -78 71 -19 0 -19 30 1 44 18 13 23 13 41 -5 11 -10 23
-19 26 -19 3 0 31 28 61 62 30 34 76 82 102 108 l47 47 -24 25 c-22 24 -23 27
-7 46 l16 20 28 -21 c15 -12 27 -28 27 -34z m-1684 -36 c1 -58 -5 -69 -42 -72
-15 -2 -28 -4 -28 -5 0 -1 -16 -3 -35 -5 -19 -2 -45 -6 -56 -8 -12 -3 -38 -8
-59 -11 -20 -4 -42 -9 -49 -13 -6 -4 -15 -8 -21 -9 -60 -11 -272 -98 -286
-117 -3 -5 -10 -9 -15 -9 -11 -1 -57 -21 -64 -28 -3 -3 -21 -14 -40 -24 -19
-11 -42 -25 -50 -33 -8 -7 -42 -33 -76 -57 l-60 -43 -37 37 c-20 21 -38 35
-41 32 -4 -3 -6 0 -6 6 0 14 8 21 118 101 45 34 86 61 91 61 4 0 18 9 31 20
12 11 26 17 30 15 5 -3 10 -2 12 2 5 12 177 96 223 109 6 2 23 6 40 9 16 3 34
10 40 14 11 9 45 19 90 27 17 4 32 9 35 12 3 4 23 8 45 10 22 2 45 8 51 13 8
7 15 6 19 -1 5 -8 11 -8 21 1 8 6 14 9 14 6 0 -2 15 -1 33 2 65 14 71 11 72
-42z m435 38 c14 -1 32 -5 40 -8 8 -3 36 -8 62 -12 26 -3 94 -22 150 -41 57
-20 112 -37 123 -37 11 -1 22 -5 25 -8 6 -7 192 -103 201 -103 13 -2 114 -70
122 -83 4 -7 13 -13 18 -13 6 0 17 -6 24 -12 31 -28 44 -38 50 -38 9 0 30 -24
32 -38 2 -6 -2 -12 -8 -12 -6 0 -26 -16 -45 -36 -19 -20 -34 -31 -34 -25 0 7
-4 9 -10 6 -5 -3 -10 -2 -10 3 0 6 -20 23 -45 39 -25 15 -45 31 -45 36 0 4 -5
7 -10 7 -10 0 -22 8 -55 38 -7 6 -20 12 -28 12 -9 0 -17 4 -19 8 -4 11 -197
105 -240 117 -5 2 -10 4 -13 5 -5 3 -6 3 -50 15 -16 4 -36 12 -42 18 -7 5 -13
6 -13 3 0 -4 -10 -1 -22 5 -22 12 -57 20 -88 20 -8 1 -22 3 -30 6 -8 3 -33 8
-54 10 -22 2 -48 9 -58 14 -12 6 -18 6 -18 0 0 -6 -6 -8 -13 -5 -9 3 -13 24
-13 63 l0 59 45 -5 c25 -2 57 -6 71 -8z m-2131 -93 c37 -36 38 -39 25 -65 -8
-15 -18 -27 -22 -27 -4 0 -15 -12 -24 -27 -9 -16 -25 -38 -35 -49 -10 -12 -29
-36 -43 -54 -14 -18 -30 -39 -37 -45 -7 -7 -9 -15 -6 -19 4 -3 1 -6 -6 -6 -6
0 -16 -10 -21 -22 -6 -13 -14 -30 -20 -38 -5 -8 -30 -53 -57 -100 -26 -47 -50
-87 -53 -90 -3 -3 -12 -21 -20 -40 -7 -19 -22 -54 -32 -77 -34 -78 -41 -98
-39 -107 1 -5 -4 -13 -11 -17 -13 -8 -14 -12 -17 -43 0 -8 -7 -21 -13 -28 -7
-7 -14 -22 -14 -33 -2 -21 -31 -140 -41 -165 -4 -8 -7 -18 -8 -22 -2 -5 -3 -9
-5 -10 -1 -2 -3 -12 -4 -23 -2 -11 -8 -45 -15 -75 -6 -30 -13 -82 -16 -115 -2
-33 -5 -60 -5 -60 -1 0 -3 -11 -6 -25 -12 -77 -16 -89 -28 -93 -7 -3 -19 -1
-26 3 -8 5 -22 4 -32 -1 -12 -6 -18 -6 -18 1 0 5 -6 9 -12 7 -8 -1 -12 6 -10
18 4 34 11 97 16 155 3 30 8 66 11 80 3 14 8 38 11 55 3 16 10 35 16 42 7 9 7
13 -1 13 -9 0 -9 5 -1 20 6 11 8 25 5 30 -3 6 -2 10 3 10 5 0 9 6 10 13 1 6 4
26 7 42 4 17 8 37 9 45 2 8 9 29 16 45 7 17 15 39 17 50 2 11 8 22 13 23 6 2
8 8 5 12 -3 5 1 25 9 45 8 19 13 35 10 35 -3 0 1 7 10 15 8 9 13 22 10 30 -4
8 -1 15 5 15 6 0 10 3 9 8 -1 7 10 36 41 105 11 23 18 46 18 50 -1 5 6 13 16
18 9 6 15 14 12 20 -4 5 -1 9 5 9 6 0 9 4 5 9 -3 5 2 17 11 25 8 9 13 16 9 16
-3 0 8 20 25 45 17 25 27 45 23 45 -4 0 0 5 10 11 9 5 17 14 17 20 0 13 72
122 87 132 7 4 13 13 13 19 0 10 32 51 85 111 13 15 22 27 20 27 -8 0 29 38
37 39 5 1 26 -16 47 -37z m3821 -32 c29 -38 56 -70 61 -70 5 0 9 -7 9 -15 0
-7 6 -18 13 -22 13 -8 52 -67 76 -115 8 -16 18 -28 23 -28 4 0 8 -5 8 -11 0
-6 13 -29 28 -52 15 -23 39 -64 52 -92 14 -27 28 -53 33 -56 4 -3 9 -16 10
-27 1 -12 5 -22 9 -22 4 0 8 -9 8 -21 0 -11 5 -17 10 -14 6 3 10 -3 10 -14 0
-11 5 -23 10 -26 6 -4 8 -10 5 -15 -3 -5 1 -15 9 -23 8 -8 17 -25 19 -38 3
-13 8 -35 13 -49 4 -14 6 -27 5 -29 -2 -2 2 -7 8 -11 6 -3 13 -15 15 -26 2
-10 11 -40 20 -65 9 -25 17 -54 19 -65 2 -10 7 -26 10 -34 7 -19 30 -120 32
-140 0 -9 4 -20 8 -26 3 -6 8 -30 9 -52 2 -23 5 -42 8 -42 3 0 6 -21 7 -48 3
-53 10 -127 13 -127 7 0 3 -54 -5 -61 -11 -11 -92 -11 -102 0 -4 4 -8 19 -9
34 -1 15 -2 27 -4 27 -1 0 -3 16 -5 35 -9 111 -23 196 -45 275 -6 22 -13 48
-14 57 -1 10 -5 20 -8 24 -4 3 -4 12 -1 20 3 8 0 14 -5 14 -6 0 -11 9 -11 20
-1 11 -1 29 -2 40 0 11 -4 20 -7 20 -4 0 -9 10 -9 22 -1 13 -7 24 -13 26 -5 2
-8 8 -4 13 5 8 1 19 -40 97 -9 17 -14 32 -11 32 3 0 0 10 -7 23 -7 12 -13 24
-13 27 -6 23 -55 130 -65 140 -6 6 -27 43 -54 95 -12 22 -26 46 -33 53 -6 6
-15 21 -18 32 -3 11 -11 20 -16 20 -6 0 -8 4 -5 9 3 4 -3 16 -14 26 -11 10
-20 24 -20 30 0 7 -7 15 -15 19 -8 3 -15 12 -15 21 0 8 -6 15 -13 15 -8 0 -22
18 -33 40 -10 22 -24 40 -31 40 -6 0 -15 9 -18 21 -4 12 -16 30 -28 42 -18 18
-19 21 -4 32 10 7 17 18 17 24 0 7 4 10 8 7 5 -3 15 4 22 15 8 10 20 19 26 19
7 0 35 -31 64 -70z m-3626 -72 c9 -12 16 -32 16 -45 0 -12 5 -25 10 -28 6 -3
10 -16 10 -28 0 -12 7 -42 16 -67 9 -25 18 -56 21 -70 2 -13 8 -29 12 -35 5
-5 7 -18 6 -27 -2 -10 1 -20 6 -24 5 -3 7 -9 4 -14 -3 -4 1 -10 9 -13 12 -5
83 69 80 83 -1 3 6 10 14 16 12 9 12 14 1 32 -8 12 -16 22 -19 22 -3 0 -11 4
-19 9 -12 8 -12 12 2 25 22 22 28 21 70 -18 20 -18 39 -31 42 -28 3 3 5 -4 5
-16 0 -12 -4 -22 -10 -22 -5 0 -10 -4 -10 -10 0 -5 -8 -18 -17 -28 -36 -37
-73 -82 -68 -82 3 0 -3 -8 -12 -18 -30 -31 -60 -68 -71 -87 -9 -17 -11 -17
-34 8 -16 17 -30 50 -38 87 -7 33 -16 60 -21 60 -4 0 -6 9 -4 20 2 11 0 22 -5
25 -5 3 -7 12 -3 20 3 8 -1 15 -8 15 -7 0 -10 3 -7 6 4 3 2 20 -3 37 -6 18
-12 40 -14 50 -10 46 -32 49 -60 8 -10 -16 -23 -27 -29 -24 -5 3 -7 2 -4 -3 3
-5 2 -18 -2 -29 -5 -13 0 -27 16 -44 21 -23 22 -27 8 -42 -15 -17 -19 -16 -64
19 -27 20 -49 40 -49 44 -1 6 14 26 77 98 17 20 32 40 32 44 0 3 16 23 35 43
19 20 35 41 35 45 0 17 30 7 44 -14z m3411 -48 c43 -16 55 -35 59 -90 2 -21 6
-24 30 -22 17 2 26 0 22 -6 -3 -6 0 -12 6 -15 8 -2 -5 -20 -32 -46 -42 -39
-45 -41 -54 -21 -5 11 -13 20 -18 20 -5 0 -2 11 7 23 18 28 10 87 -11 87 -8 0
-14 4 -14 10 0 5 -10 8 -22 6 -13 -3 -27 -5 -31 -5 -5 -1 -6 -5 -3 -10 3 -5 0
-11 -8 -14 -11 -5 -12 -14 -5 -44 22 -87 27 -138 16 -163 -6 -14 -10 -27 -10
-30 0 -3 -8 -13 -18 -22 -11 -10 -19 -15 -19 -10 0 4 -4 1 -8 -6 -13 -20 -70
-22 -107 -5 -34 16 -66 68 -61 99 5 27 -4 37 -20 23 -10 -8 -17 -7 -29 5 -14
14 -14 18 1 41 9 14 19 24 21 21 2 -2 16 7 30 20 l25 23 18 -22 c16 -19 17
-24 4 -38 -25 -27 -24 -57 0 -86 30 -35 70 -38 87 -6 7 12 16 23 21 23 5 0 6
5 2 11 -6 10 -15 75 -15 113 0 11 -4 27 -10 37 -6 12 -5 20 1 24 6 4 8 9 6 13
-12 19 59 72 96 72 9 0 29 -5 43 -10z m275 -400 c29 -58 65 -131 81 -162 l29
-56 -65 -34 c-56 -28 -67 -31 -75 -18 -10 16 -9 34 2 28 4 -2 14 6 22 17 9 11
16 16 16 12 0 -4 6 -2 13 5 16 14 11 53 -9 69 -14 12 -84 4 -84 -9 0 -8 -60
-35 -72 -33 -5 0 -8 -3 -8 -9 0 -6 -8 -10 -19 -10 -10 0 -24 -7 -31 -15 -7 -8
-20 -15 -29 -15 -25 0 -45 -38 -30 -56 10 -12 8 -19 -9 -35 -17 -15 -22 -16
-22 -5 0 8 -3 16 -7 18 -5 2 -27 40 -50 86 -42 82 -42 83 -20 92 22 8 40 -4
50 -34 2 -7 23 0 55 17 29 16 52 25 52 22 0 -4 7 1 16 9 8 9 22 16 30 16 8 0
14 5 14 10 0 6 3 9 8 8 13 -3 58 20 71 36 7 9 18 13 24 9 7 -4 8 0 3 13 -4 10
-8 24 -9 29 -1 6 -10 13 -20 17 -10 4 -15 12 -12 18 9 14 -1 13 -17 -3 -7 -7
-25 -17 -39 -24 -22 -9 -27 -8 -37 8 -11 17 -8 22 20 39 18 11 39 20 46 20 6
0 12 4 12 9 0 7 36 20 46 16 1 0 25 -47 54 -105z m-3966 74 c3 -8 1 -14 -5
-14 -6 0 -8 -4 -4 -9 3 -5 1 -13 -5 -16 -13 -8 26 -45 47 -45 7 0 13 -5 13
-12 0 -6 3 -8 6 -5 7 7 97 -42 102 -55 2 -4 11 -8 21 -8 9 0 22 -5 27 -10 23
-23 55 -20 66 5 13 29 16 30 43 9 13 -9 16 -17 9 -22 -5 -4 -17 -23 -24 -42
-8 -19 -21 -43 -30 -53 -8 -10 -15 -21 -15 -25 -1 -4 -8 -20 -16 -35 l-15 -28
-22 20 c-14 12 -19 22 -12 26 21 13 10 45 -22 61 -18 9 -36 21 -39 26 -3 5 -9
9 -13 9 -21 -3 -38 0 -33 6 8 7 -38 33 -59 33 -8 0 -14 3 -14 8 0 12 -56 33
-73 26 -9 -3 -19 -14 -22 -25 -5 -15 -10 -17 -26 -9 -20 11 -27 40 -9 40 6 0
9 3 9 8 -3 14 23 72 32 72 5 0 9 7 9 15 0 8 5 15 10 15 6 0 9 3 8 8 -1 4 1 17
5 28 8 24 42 23 51 -2z m674 -126 c-3 -13 -7 -19 -36 -55 -9 -11 -24 -31 -32
-43 -8 -12 -22 -30 -31 -40 -8 -10 -33 -54 -55 -97 -21 -43 -42 -79 -46 -81
-5 -2 -8 -12 -8 -23 0 -10 -5 -19 -12 -19 -6 0 -8 -3 -5 -7 4 -3 2 -12 -4 -20
-6 -7 -8 -13 -3 -13 4 0 1 -6 -7 -12 -14 -12 -37 -73 -46 -122 -2 -11 -8 -25
-13 -31 -5 -7 -7 -15 -3 -18 3 -4 2 -7 -4 -7 -6 0 -9 -9 -5 -22 4 -16 2 -19
-8 -13 -7 5 -11 4 -8 -1 5 -8 -26 -213 -36 -240 -4 -11 -52 -11 -63 0 -4 3
-12 1 -19 -5 -9 -7 -15 -6 -21 3 -9 15 -12 58 -3 58 3 0 6 12 6 28 1 15 4 41
8 57 4 17 8 41 10 55 4 44 29 130 38 130 5 0 7 4 4 9 -4 5 -1 22 6 38 6 15 10
32 9 37 -1 4 4 14 10 22 6 8 9 14 5 14 -4 0 0 13 8 29 9 16 12 31 9 35 -4 3
-1 6 5 6 6 0 13 13 17 29 3 16 13 32 21 35 8 3 14 11 12 18 -3 17 78 170 107
202 12 14 20 27 18 30 -3 3 2 8 11 12 9 3 16 13 16 20 0 8 7 17 15 20 8 4 15
12 15 18 0 7 9 22 20 34 l20 21 40 -39 c22 -22 39 -45 38 -52z m2658 37 c4
-11 13 -27 21 -35 36 -39 63 -76 63 -87 0 -7 4 -13 9 -13 5 0 23 -30 41 -67
18 -38 35 -70 39 -73 3 -3 8 -14 9 -25 2 -11 7 -22 11 -25 10 -7 44 -81 48
-104 2 -11 9 -26 16 -35 10 -12 9 -13 -3 -7 -9 4 -8 2 2 -7 10 -8 15 -17 12
-20 -3 -3 6 -37 20 -75 13 -38 22 -73 19 -76 -4 -3 -2 -6 3 -6 5 0 11 -12 12
-27 1 -16 5 -41 8 -58 3 -16 7 -46 9 -65 2 -19 4 -36 5 -37 2 -2 3 -11 4 -20
1 -10 5 -24 9 -30 5 -8 3 -13 -5 -14 -7 -1 -20 -2 -28 -3 -8 -1 -25 2 -36 6
-12 3 -26 2 -33 -5 -8 -8 -11 -7 -11 6 0 9 -4 17 -8 17 -5 0 -8 10 -7 23 1 12
0 27 -4 32 -3 6 -6 21 -7 35 -1 14 -2 25 -4 25 -1 0 -3 14 -5 30 -1 17 -3 30
-4 30 -1 0 -4 11 -6 25 -2 14 -9 39 -16 55 -7 17 -11 34 -10 39 1 4 -3 13 -8
20 -6 6 -12 25 -15 41 -3 17 -15 50 -27 75 -50 106 -84 175 -90 180 -4 3 -10
16 -14 29 -4 14 -18 36 -31 50 -13 14 -24 29 -24 33 0 4 -20 34 -45 67 -25 32
-45 62 -45 66 0 4 17 25 37 46 35 36 37 37 59 21 13 -9 26 -26 30 -37z m-3448
-287 c23 -7 32 -15 28 -25 -3 -8 -6 -18 -6 -23 0 -4 -11 -11 -24 -14 -29 -7
-86 -61 -86 -81 0 -8 -4 -16 -8 -19 -17 -10 1 -106 19 -106 5 0 9 -6 9 -14 0
-8 9 -18 20 -21 11 -3 20 -11 20 -16 0 -5 8 -9 18 -9 10 0 22 -3 26 -7 25 -26
131 -4 142 29 3 11 8 17 11 14 3 -3 12 1 20 9 13 13 17 24 27 75 4 16 -24 70
-35 70 -4 0 -9 6 -11 14 -5 22 -39 -6 -41 -33 -1 -22 -31 -29 -42 -11 -4 6 1
36 10 68 10 31 18 63 19 70 4 26 21 31 56 14 43 -20 50 -27 76 -78 15 -29 19
-46 12 -58 -6 -10 -5 -16 2 -16 13 0 13 -37 0 -45 -7 -4 -7 -13 0 -24 5 -10 5
-22 1 -27 -4 -5 -14 -25 -21 -44 -13 -34 -60 -99 -60 -84 0 4 -6 1 -12 -8 -16
-19 -83 -42 -103 -34 -8 3 -17 1 -20 -5 -4 -5 -12 -6 -18 -2 -7 4 -20 9 -30
10 -27 4 -79 33 -103 57 -23 23 -55 80 -52 93 0 4 -2 21 -7 36 -4 17 -3 33 3
39 6 6 8 16 6 22 -3 7 2 26 11 42 8 16 15 35 15 42 0 6 5 12 12 12 6 0 9 3 6
6 -4 3 3 15 14 26 19 19 19 21 2 39 -11 12 -13 19 -5 19 7 0 9 5 5 11 -7 12
32 7 94 -13z m4240 -109 c12 -8 22 -19 22 -26 0 -7 4 -13 8 -13 5 0 8 -10 6
-22 -1 -13 -3 -36 -3 -51 -1 -16 -5 -26 -11 -22 -5 3 -7 0 -4 -9 3 -8 11 -13
17 -10 7 2 18 -5 25 -16 10 -17 10 -21 -3 -25 -8 -3 -23 -8 -32 -11 -10 -4
-28 -8 -40 -10 -31 -4 -38 34 -11 63 12 13 23 32 25 43 4 27 -38 73 -59 65
-23 -9 -48 -49 -50 -80 -1 -14 -5 -25 -8 -25 -3 0 -6 -8 -7 -17 -3 -44 -8 -63
-15 -63 -4 0 -7 -3 -5 -7 3 -12 -37 -48 -58 -51 -70 -11 -88 -7 -119 23 -27
26 -32 37 -30 75 1 25 4 55 7 66 4 17 1 21 -15 20 -36 -2 -27 44 9 51 79 16
90 15 88 -6 -1 -12 -13 -34 -28 -49 -15 -15 -27 -35 -27 -44 0 -26 11 -48 21
-42 5 3 9 -1 9 -9 0 -28 47 -26 72 2 12 14 22 28 21 31 0 3 4 16 9 30 10 27
18 56 21 80 9 66 101 99 165 59z m-4263 -589 c-3 -5 -2 -10 3 -10 6 0 13 -16
16 -35 8 -42 26 -52 89 -50 26 0 47 -3 47 -7 0 -4 -4 -8 -10 -8 -5 0 -25 -15
-44 -34 -27 -25 -34 -39 -30 -57 3 -13 6 -28 7 -34 2 -5 6 -16 11 -23 14 -23
-1 -23 -37 0 -20 13 -36 29 -37 36 0 10 -7 9 -30 -3 -16 -9 -30 -20 -30 -25 0
-6 -7 -10 -15 -10 -8 0 -15 -5 -15 -11 0 -5 -4 -8 -9 -4 -11 6 -4 54 11 72 7
9 6 20 -6 38 -9 14 -20 25 -25 25 -9 0 -51 35 -51 42 0 3 19 4 42 3 63 -3 76
4 88 44 6 20 13 42 15 49 3 6 7 12 10 12 4 0 3 -4 0 -10z m4175 -17 c0 -10 9
-32 19 -49 18 -29 23 -31 70 -29 57 2 63 -5 25 -30 -62 -40 -63 -44 -48 -93 7
-26 12 -48 9 -50 -5 -5 -46 18 -63 35 -17 17 -47 9 -81 -23 -24 -22 -54 -23
-32 -1 6 6 11 20 11 32 0 12 5 26 10 31 12 12 -34 64 -56 64 -7 0 -18 8 -23
18 -8 16 -4 18 37 19 26 0 54 1 63 2 11 1 21 17 28 46 11 44 31 62 31 28z
m-4578 -222 c10 5 18 6 18 1 0 -5 11 -7 25 -4 14 2 25 0 25 -4 0 -5 5 -38 11
-74 12 -81 22 -167 23 -200 0 -14 4 -27 8 -30 4 -3 8 -21 10 -39 1 -18 6 -35
10 -37 5 -3 6 -10 3 -15 -4 -5 -2 -9 4 -9 5 0 8 -8 7 -17 -2 -10 0 -27 4 -38
5 -11 13 -40 20 -65 7 -25 15 -52 18 -60 3 -8 4 -19 3 -23 -1 -5 5 -20 13 -35
12 -23 22 -46 31 -72 1 -3 7 -17 13 -32 7 -16 17 -40 24 -55 6 -16 12 -30 13
-33 1 -3 9 -22 18 -44 9 -21 17 -42 17 -47 0 -5 4 -9 9 -9 5 0 11 -8 15 -17 3
-10 20 -40 36 -68 17 -27 34 -58 37 -67 3 -10 9 -18 14 -18 5 0 9 -4 9 -9 0
-15 62 -111 71 -111 5 0 9 -6 9 -13 0 -7 9 -19 19 -27 11 -7 18 -17 15 -22 -3
-4 2 -11 10 -14 9 -3 16 -11 16 -16 0 -6 11 -21 25 -34 14 -13 25 -28 25 -34
0 -5 5 -10 12 -10 6 0 8 -3 5 -7 -4 -3 1 -12 10 -18 15 -11 13 -17 -25 -54
-26 -26 -47 -39 -56 -35 -9 3 -16 9 -16 13 0 4 -13 23 -30 42 -16 19 -34 40
-40 46 -6 7 -9 15 -8 18 2 2 -7 12 -19 20 -13 9 -23 23 -23 31 0 8 -4 12 -10
9 -5 -3 -10 0 -10 8 0 8 -7 20 -15 27 -9 7 -13 15 -11 17 3 3 -4 14 -15 26
-10 11 -19 27 -19 34 0 7 -4 13 -9 13 -5 0 -11 8 -15 18 -6 19 -28 54 -38 62
-3 3 -32 57 -63 120 -31 63 -65 132 -76 153 -10 22 -19 45 -19 53 0 8 -4 14
-8 14 -4 0 -9 10 -9 22 -1 13 -7 32 -12 43 -14 28 -61 170 -67 200 -2 14 -9
36 -14 50 -6 15 -10 39 -10 54 0 15 -3 31 -7 35 -4 3 -8 12 -9 19 -1 7 -7 38
-13 69 -12 56 -20 125 -25 198 -1 19 -4 40 -8 46 -4 5 -5 19 -3 30 2 10 4 23
4 29 1 5 6 4 13 -3 7 -7 17 -8 30 -1z m841 -5 c3 3 10 -3 16 -14 6 -11 8 -22
5 -25 -3 -3 -3 -11 2 -18 4 -7 9 -35 11 -63 3 -28 9 -54 15 -57 7 -4 6 -9 -1
-14 -8 -4 -9 -11 -3 -18 5 -7 15 -34 22 -62 7 -27 17 -56 23 -62 5 -7 7 -13 4
-13 -9 0 27 -99 54 -150 13 -25 22 -48 21 -52 -1 -5 2 -8 8 -8 6 0 9 -3 8 -7
-5 -21 113 -213 174 -282 7 -8 13 -22 15 -30 2 -17 -29 -51 -47 -51 -6 0 -9
-4 -6 -9 3 -5 -1 -14 -9 -21 -12 -10 -18 -8 -35 11 -10 13 -19 27 -20 32 0 7
-11 21 -56 71 -13 14 -20 26 -17 26 3 0 -1 8 -9 18 -9 9 -24 33 -33 52 -10 19
-23 38 -29 42 -6 5 -7 8 -1 8 7 0 7 3 0 8 -12 9 -69 124 -67 135 1 4 -3 7 -9
7 -5 0 -7 5 -4 10 3 6 2 10 -3 10 -8 0 -16 21 -28 84 -3 11 -9 25 -14 31 -5 7
-7 15 -3 18 3 4 1 7 -6 7 -7 0 -9 4 -6 10 3 5 1 18 -4 28 -6 11 -12 30 -15 43
-3 13 -11 44 -17 69 -6 25 -13 56 -14 70 -9 77 -22 146 -29 159 -3 5 8 8 24 7
17 -1 36 1 42 5 7 4 17 4 24 -1 6 -6 13 -7 17 -4z m3339 5 c10 6 19 5 23 -1 4
-6 11 -8 16 -4 9 5 6 -52 -7 -121 -3 -16 -6 -42 -7 -57 -1 -16 -4 -28 -8 -28
-3 0 -6 -10 -5 -22 1 -13 -6 -42 -16 -66 -9 -23 -18 -46 -19 -50 -2 -10 -6
-21 -25 -82 -10 -30 -19 -59 -20 -65 -5 -28 -10 -40 -15 -45 -3 -3 -24 -43
-47 -90 -56 -111 -91 -173 -106 -185 -6 -5 -26 -34 -45 -62 -18 -29 -37 -53
-42 -53 -5 0 -9 -6 -9 -14 0 -31 -23 -27 -61 10 -41 40 -45 61 -16 82 9 7 17
19 17 25 0 7 13 27 29 44 16 18 26 34 23 37 -3 3 1 6 8 6 7 0 11 3 8 6 -3 3 5
17 18 31 13 14 24 31 24 38 0 7 9 24 21 39 11 14 18 26 14 26 -3 0 11 33 32
73 21 39 38 75 39 80 1 4 3 9 4 12 1 3 3 8 4 13 4 17 28 89 36 107 11 24 29
95 35 133 2 15 7 38 10 52 3 14 6 40 6 58 1 17 5 32 9 32 5 0 7 8 6 18 -4 22
13 33 33 22 9 -5 23 -4 33 1z m833 -22 c2 -13 -3 -30 -9 -38 -9 -12 -8 -13 3
-6 10 6 12 4 5 -6 -4 -8 -9 -30 -11 -49 -5 -75 -24 -214 -31 -225 -7 -11 -9
-22 -17 -80 -3 -22 -10 -42 -15 -43 -6 -2 -8 -7 -5 -11 8 -14 -87 -311 -118
-367 -30 -55 -91 -189 -89 -196 1 -5 -2 -8 -7 -8 -5 0 -13 -10 -17 -22 -4 -13
-21 -43 -38 -68 -17 -25 -30 -48 -28 -52 1 -5 -3 -8 -8 -8 -6 0 -10 -7 -10
-15 0 -8 -4 -15 -8 -15 -5 0 -16 -16 -25 -36 -18 -37 -19 -38 -72 -99 -19 -22
-35 -45 -35 -50 0 -6 -9 -16 -20 -23 -11 -7 -20 -16 -20 -21 0 -5 -13 -23 -28
-39 l-29 -31 -41 43 c-31 33 -39 45 -30 54 7 7 8 12 3 12 -4 0 1 8 11 18 11 9
35 38 54 65 18 26 37 47 41 47 4 0 10 8 13 18 4 9 20 33 36 52 16 19 35 41 40
48 6 7 8 17 5 22 -3 6 -1 10 4 10 6 0 11 6 11 14 0 8 7 17 16 20 8 3 13 10 10
15 -3 5 3 20 14 34 11 14 20 29 20 34 0 5 9 19 20 31 12 12 18 22 15 22 -4 0
3 13 14 29 12 16 21 32 21 36 0 6 30 78 51 120 5 11 11 31 14 44 2 14 10 28
16 31 6 4 10 10 10 14 -1 3 6 23 14 43 8 20 18 49 21 66 2 16 9 38 15 48 5 11
7 19 4 19 -4 0 -3 6 2 13 4 6 8 18 9 25 1 7 14 56 28 110 23 90 36 167 40 252
1 19 4 40 7 45 3 6 5 22 4 37 -2 27 17 44 36 32 5 -3 9 -2 9 3 0 4 17 8 37 7
31 -1 37 -5 38 -25z m-598 -244 c18 -9 33 -18 33 -21 0 -3 -4 -3 -9 1 -5 3
-12 1 -15 -3 -6 -9 -92 0 -103 11 -3 4 0 13 6 21 14 16 40 14 88 -9z m-3757
-54 c0 -21 -12 -27 -80 -36 -24 -4 -47 -8 -51 -10 -3 -2 -6 2 -6 10 0 8 4 12
8 9 4 -2 10 0 14 6 4 6 11 8 16 5 5 -4 9 -2 9 3 0 9 50 29 78 31 6 1 12 -8 12
-18z m3722 -63 c4 -7 8 -9 8 -4 0 5 6 3 13 -3 8 -6 17 -8 20 -4 4 3 7 1 7 -5
0 -7 -19 -10 -52 -8 -65 3 -89 13 -81 33 7 18 72 11 85 -9z m-3692 -69 c-6
-11 -14 -18 -18 -15 -4 2 -26 1 -50 -4 -59 -10 -62 5 -5 34 35 17 53 21 66 15
14 -8 15 -14 7 -30z m3631 -56 c37 -16 38 -19 30 -62 -1 -2 -11 3 -23 11 -20
13 -25 12 -38 -2 -8 -9 -17 -25 -18 -35 -2 -11 -7 -22 -11 -25 -6 -5 -6 -10
-2 -39 0 -4 23 -18 50 -29 l50 -20 13 28 c9 21 19 29 35 28 27 -3 29 -19 7
-52 -14 -23 -14 -25 8 -31 13 -4 31 -14 41 -23 9 -8 17 -12 17 -9 0 4 11 2 25
-3 20 -8 27 -6 35 9 10 20 25 22 48 7 11 -6 10 -12 -4 -27 -9 -10 -14 -19 -10
-19 4 0 1 -10 -6 -22 -6 -13 -13 -29 -14 -37 -2 -8 -8 -17 -14 -21 -7 -4 -11
-10 -11 -14 1 -3 -1 -6 -4 -6 -3 0 -12 0 -20 0 -11 0 -15 8 -13 28 3 24 -3 30
-60 59 -73 37 -66 33 -92 40 -11 3 -20 10 -20 16 0 6 -3 8 -6 4 -4 -3 -23 2
-43 12 -30 16 -40 17 -54 7 -9 -7 -13 -17 -9 -21 4 -5 -1 -5 -11 -2 -10 4 -23
7 -28 7 -12 0 -12 37 0 45 5 3 12 19 16 35 4 17 11 30 16 30 6 0 8 4 4 9 -3 5
1 15 8 23 8 7 13 21 11 31 -1 9 1 17 5 17 4 0 13 16 21 35 16 40 20 41 71 18z
m-3574 -78 c31 -54 31 -55 12 -66 -13 -7 -24 -7 -32 -1 -12 11 -65 -10 -59
-23 1 -3 -12 -18 -30 -33 -45 -37 -83 -77 -85 -91 -4 -14 11 -14 61 0 21 6 46
12 55 14 9 2 30 8 48 14 17 5 34 7 37 4 3 -3 8 7 12 21 3 15 15 31 25 36 15 8
22 3 43 -32 l25 -43 -22 -12 c-26 -15 -40 -16 -33 -4 4 5 0 8 -6 7 -29 -6 -48
-19 -48 -32 0 -8 -6 -14 -14 -14 -8 0 -18 -9 -21 -20 -3 -11 -13 -20 -21 -20
-8 0 -12 -4 -9 -10 5 -9 -8 -14 -19 -7 -2 1 -13 -9 -23 -22 -15 -19 -17 -28
-9 -37 6 -6 16 -9 21 -6 11 7 32 12 53 14 6 1 12 4 12 8 0 5 19 9 62 11 10 0
20 4 23 9 3 5 12 7 20 3 11 -4 17 4 21 26 5 24 12 31 30 31 18 0 29 -10 44
-42 19 -39 19 -44 4 -55 -16 -12 -44 -7 -44 7 0 5 -9 8 -20 7 -11 -1 -20 -5
-20 -10 0 -4 -5 -5 -10 -2 -6 4 -17 1 -25 -5 -8 -7 -15 -10 -15 -7 0 3 -20 0
-45 -7 -25 -8 -45 -12 -45 -10 0 2 -12 -1 -27 -7 -15 -6 -46 -13 -68 -16 -22
-3 -48 -10 -58 -15 -20 -10 -47 5 -47 26 1 14 35 56 47 57 11 0 83 88 83 100
0 6 -5 7 -11 4 -5 -4 -20 -8 -32 -10 -12 -2 -35 -7 -52 -10 -16 -4 -37 -8 -45
-10 -8 -2 -15 -4 -15 -5 0 -1 -10 -3 -22 -4 -13 -2 -23 3 -23 10 0 7 -6 14
-12 16 -7 3 7 23 34 49 26 24 86 81 133 127 47 45 89 82 95 82 5 0 7 10 5 22
-4 19 8 37 25 38 3 0 20 -25 37 -55z m3434 -245 c30 -19 35 -27 26 -41 -9 -14
-13 -15 -36 -3 -16 9 -27 10 -29 4 -2 -6 -8 -8 -13 -4 -5 3 -9 0 -9 -6 0 -7
-9 -25 -20 -41 -17 -23 -19 -33 -10 -49 6 -11 15 -20 21 -20 6 0 17 -7 25 -15
23 -23 49 -18 62 10 10 22 15 24 31 15 29 -15 34 -28 14 -39 -10 -6 -13 -11
-8 -11 6 0 4 -4 -3 -9 -10 -6 -7 -15 16 -37 16 -16 41 -36 56 -44 25 -13 29
-13 41 3 16 22 31 22 43 0 8 -13 2 -28 -24 -62 -18 -25 -39 -54 -47 -65 -12
-17 -14 -17 -29 -3 -8 9 -19 13 -24 9 -5 -4 -2 1 5 10 19 25 6 52 -40 77 -22
13 -43 29 -46 37 -3 8 -8 12 -13 9 -4 -2 -16 4 -27 14 -11 11 -34 26 -50 35
-17 8 -38 22 -46 31 -14 13 -16 13 -22 -5 -7 -21 -34 -24 -47 -5 -11 15 -10
20 16 50 14 16 23 32 20 37 -3 4 -1 8 4 8 5 0 31 34 58 75 29 45 52 71 58 67
6 -5 27 -19 47 -32z m-3183 -179 c12 -11 22 -22 22 -25 0 -6 40 -54 86 -100
37 -39 47 -63 31 -76 -66 -54 -72 -57 -83 -46 -6 7 -8 20 -3 31 4 11 8 16 9
10 1 -5 5 1 9 14 5 20 -1 32 -29 61 -39 41 -53 40 -96 -9 -29 -32 -29 -32 -4
-59 24 -25 24 -29 5 -49 -18 -17 -45 -11 -45 11 0 29 -42 26 -81 -7 -35 -30
-51 -67 -29 -67 6 0 10 -5 10 -11 0 -7 12 -22 27 -34 21 -19 29 -21 45 -12 10
7 18 16 18 21 0 5 9 1 21 -10 l20 -18 -40 -38 c-25 -22 -47 -35 -56 -32 -8 4
-15 9 -15 13 0 3 -17 24 -38 47 -73 80 -102 116 -102 126 0 5 -4 7 -8 4 -5 -3
-9 1 -9 8 0 23 34 38 50 22 11 -12 21 -7 60 29 26 24 47 41 47 39 0 -2 20 15
44 38 24 24 54 50 65 57 14 11 19 22 15 37 -11 45 15 57 54 25z m2952 -116
c-15 -18 -12 -22 73 -107 33 -32 63 -58 68 -58 5 0 9 -4 9 -8 0 -5 9 -19 20
-32 25 -29 34 -62 26 -93 -7 -28 -39 -67 -55 -67 -6 0 -11 -4 -11 -9 0 -17
-44 -17 -87 -2 -24 9 -43 18 -43 21 0 11 -99 107 -105 102 -3 -3 -5 0 -5 6 0
7 -15 25 -32 41 -24 21 -37 27 -49 20 -22 -12 -52 11 -43 34 3 9 10 17 16 17
5 0 25 16 44 36 33 36 35 36 53 20 20 -18 18 -51 -3 -39 -21 12 67 -81 132
-139 17 -14 34 -32 39 -40 4 -7 18 -18 29 -25 18 -10 26 -8 52 13 33 27 36 61
7 76 -8 5 -15 13 -15 19 0 5 -37 45 -81 89 -64 63 -85 77 -98 70 -13 -6 -20
-3 -30 12 -11 18 -8 24 29 60 42 38 43 39 57 18 12 -16 12 -24 3 -35z m-2452
-17 c26 -17 49 -35 50 -40 2 -4 8 -8 13 -8 9 0 21 -8 53 -37 8 -7 16 -9 20 -6
3 4 6 -1 6 -10 0 -9 3 -16 8 -15 13 4 52 -13 52 -23 0 -5 6 -9 14 -9 8 0 52
-19 98 -42 45 -23 90 -43 98 -44 35 -5 63 -14 76 -25 8 -6 14 -9 14 -5 0 3 22
-3 49 -14 27 -10 51 -16 54 -13 3 3 12 1 19 -3 7 -5 22 -9 33 -10 48 -5 112
-15 139 -22 28 -8 30 -11 30 -63 0 -51 -1 -54 -24 -53 -49 2 -125 16 -134 24
-5 5 -17 5 -28 -1 -10 -5 -18 -6 -18 -1 0 5 -17 9 -37 10 -20 1 -39 5 -42 10
-3 5 -13 9 -21 10 -71 4 -440 172 -509 231 -19 17 -38 28 -43 25 -4 -3 -8 2
-8 11 0 9 -4 14 -9 10 -6 -3 -14 3 -20 12 -6 10 -11 14 -11 8 0 -6 -3 -6 -8 1
-4 5 -17 17 -30 26 l-22 15 36 42 c20 22 41 41 46 41 5 0 30 -14 56 -32z
m2073 -10 l40 -41 -30 -20 c-17 -10 -31 -23 -31 -29 0 -5 -4 -7 -8 -4 -5 3
-16 -3 -25 -12 -21 -22 -39 -36 -57 -45 -23 -11 -51 -30 -72 -50 -10 -10 -23
-15 -28 -12 -6 4 -10 2 -10 -3 0 -9 -20 -18 -44 -20 -5 0 -12 -4 -15 -9 -8
-11 -135 -73 -150 -73 -6 0 -11 -3 -11 -7 0 -5 -10 -9 -23 -9 -32 -3 -51 -8
-58 -17 -3 -4 -17 -9 -30 -11 -23 -3 -32 -6 -91 -28 -15 -5 -32 -7 -37 -3 -6
3 -11 2 -11 -2 0 -10 -25 -14 -87 -17 -24 0 -43 -5 -43 -10 0 -4 -9 -6 -20 -3
-11 3 -23 1 -26 -4 -3 -5 -18 -8 -33 -7 -27 2 -28 4 -27 57 1 47 4 56 21 60
11 2 23 8 27 15 6 8 8 8 8 -1 0 -7 9 -10 23 -6 12 3 33 7 47 8 14 2 26 4 28 5
1 2 11 4 22 5 11 1 22 4 25 5 6 3 9 4 58 13 20 5 37 12 37 17 0 6 3 9 8 8 12
-3 76 14 89 24 7 5 17 7 23 3 5 -3 10 -1 10 4 0 6 3 10 8 10 4 -1 10 0 15 1 4
1 10 3 15 4 12 3 226 110 232 116 3 3 21 17 40 30 19 14 43 32 53 40 10 8 19
13 20 11 1 -3 15 7 31 22 16 15 33 27 38 27 5 0 28 -19 49 -42z m104 -208 c-3
-5 2 -11 11 -14 8 -3 12 -10 9 -16 -3 -5 -1 -10 4 -10 6 0 11 -6 11 -14 0 -8
7 -16 15 -20 8 -3 12 -12 9 -21 -7 -17 -34 -21 -34 -4 0 14 -47 59 -61 59 -32
0 -52 -56 -24 -66 8 -4 13 -9 10 -13 -2 -4 6 -18 19 -32 12 -13 31 -40 42 -58
21 -38 40 -64 66 -92 9 -9 14 -20 11 -23 -4 -3 -1 -6 6 -6 6 0 14 6 17 14 3 8
13 12 24 9 21 -6 36 -36 20 -41 -6 -2 -16 -9 -23 -16 -6 -7 -33 -26 -58 -43
-43 -30 -46 -31 -61 -14 -14 16 -14 20 2 41 17 22 16 24 -7 59 -13 19 -28 38
-32 41 -5 3 -15 19 -24 35 -8 17 -27 44 -41 60 -14 17 -26 35 -26 41 0 7 -11
14 -25 16 -14 3 -25 1 -25 -3 0 -5 -5 -8 -12 -6 -18 3 -17 -24 2 -53 29 -44
30 -48 16 -59 -11 -9 -19 -4 -37 26 -13 21 -31 47 -41 57 -22 24 -23 46 -2 46
8 0 13 4 9 9 -3 5 5 13 17 17 13 4 25 9 28 13 3 3 34 26 70 51 36 24 66 47 68
52 2 4 14 2 27 -4 14 -6 22 -14 20 -18z m-2261 -39 c25 -17 48 -31 52 -31 4 0
22 -16 40 -35 28 -30 31 -41 28 -78 -3 -23 -9 -43 -14 -45 -6 -2 -10 -10 -10
-17 0 -11 -31 -25 -65 -30 -5 0 -9 -6 -8 -12 5 -23 6 -79 2 -92 -11 -40 -70
-83 -105 -76 -10 2 -26 4 -35 4 -8 1 -25 10 -36 20 -12 11 -24 17 -28 13 -3
-4 -11 1 -16 11 -6 9 -17 17 -24 17 -8 0 -15 5 -15 12 0 6 -3 9 -6 5 -3 -3
-16 4 -29 15 -19 17 -22 24 -12 39 8 12 16 15 27 9 23 -12 31 -5 88 85 28 44
54 85 59 91 18 22 33 54 33 68 0 8 -6 16 -12 19 -10 3 -10 7 -1 19 7 8 10 18
7 21 -19 18 42 -6 80 -32z m1931 -149 c6 -4 11 -13 13 -19 1 -7 3 -19 5 -25 1
-7 8 -17 15 -23 10 -8 8 -13 -7 -22 -15 -9 -22 -8 -37 6 -27 24 -64 33 -64 15
0 -8 -5 -13 -12 -11 -22 4 -16 -42 8 -64 17 -15 36 -22 69 -23 25 0 45 -4 45
-9 0 -5 6 -7 13 -4 27 10 112 -92 93 -111 -3 -2 -1 -12 4 -21 12 -23 -16 -78
-43 -85 -12 -3 -37 -3 -56 0 -28 5 -33 3 -28 -10 4 -10 -2 -20 -15 -27 -18
-10 -20 -9 -15 5 4 10 1 19 -9 23 -8 3 -13 11 -10 19 3 7 1 14 -3 16 -5 2 -11
13 -15 24 -8 27 17 39 38 19 7 -8 17 -11 21 -7 4 4 5 0 3 -8 -5 -23 43 -19 68
6 18 18 19 23 7 50 -6 16 -12 25 -13 19 0 -5 -6 -3 -13 6 -12 15 -48 29 -96
35 -42 5 -80 25 -86 45 -4 10 -10 19 -14 19 -4 0 -8 7 -9 15 -9 99 9 131 70
121 33 -6 38 -4 38 14 0 20 16 26 35 12z m-1642 -20 c15 -7 39 -15 52 -18 14
-3 25 -9 25 -13 0 -13 -20 -36 -31 -36 -14 0 -20 -11 -50 -80 -43 -100 -47
-110 -53 -132 -3 -13 -8 -32 -11 -42 -4 -13 3 -28 20 -45 25 -25 27 -25 56
-10 17 8 32 22 35 30 2 7 7 22 11 32 3 9 7 19 8 22 1 3 12 28 25 55 13 28 25
58 26 69 1 10 7 21 13 25 9 6 8 15 -3 37 -10 18 -12 32 -6 38 13 13 40 16 40
5 0 -5 3 -9 8 -8 17 3 51 -14 57 -29 6 -16 -13 -34 -30 -29 -12 4 -36 -18 -39
-36 -3 -11 -7 -23 -38 -94 -6 -16 -11 -31 -10 -35 1 -5 -3 -8 -10 -8 -6 0 -8
-3 -5 -6 3 -4 1 -16 -5 -28 -7 -11 -13 -23 -14 -26 -1 -3 -5 -15 -9 -26 -13
-41 -91 -54 -145 -23 -30 17 -43 36 -46 69 -4 29 23 129 40 149 6 8 10 15 8
15 -4 1 6 28 31 87 11 28 12 39 2 52 -6 9 -15 13 -19 9 -4 -4 -2 5 4 19 13 28
18 29 63 11z m-717 -167 c7 -5 24 -19 40 -30 15 -11 33 -26 40 -32 7 -7 17
-13 22 -13 6 0 12 -7 16 -15 3 -8 12 -15 21 -15 8 0 15 -4 15 -8 0 -4 25 -21
55 -37 30 -17 55 -33 55 -37 0 -5 7 -8 16 -8 9 0 27 -9 41 -20 14 -11 32 -20
39 -20 8 0 14 -3 14 -8 0 -8 116 -65 140 -69 8 -1 16 -6 18 -12 2 -5 10 -7 18
-4 8 3 14 0 14 -6 0 -6 3 -10 8 -9 4 1 24 -6 46 -15 21 -9 45 -17 52 -17 8 0
14 -4 14 -10 0 -5 17 -12 38 -16 20 -4 42 -10 47 -14 6 -5 13 -8 18 -8 7 0 40
-7 87 -18 14 -3 33 -7 43 -7 9 -1 17 -6 17 -11 0 -5 3 -6 7 -3 3 4 12 2 20 -5
7 -6 16 -8 20 -5 3 4 13 2 23 -3 9 -5 39 -12 66 -15 27 -3 63 -7 79 -9 17 -2
30 -5 30 -6 0 -1 19 -3 41 -5 23 -1 47 -6 54 -10 7 -4 15 -3 19 3 4 7 13 6 25
-4 23 -16 31 -110 10 -118 -7 -3 -15 -2 -18 1 -3 3 -34 7 -68 8 -35 1 -70 5
-78 8 -8 3 -40 8 -70 11 -30 2 -55 5 -55 6 0 2 -16 6 -55 13 -14 3 -25 6 -25
7 0 1 -11 3 -25 5 -14 2 -39 8 -57 13 -17 6 -34 8 -37 4 -3 -3 -6 0 -6 6 0 6
-7 9 -15 6 -8 -3 -20 -2 -27 2 -7 5 -22 10 -33 11 -11 2 -24 8 -29 13 -6 6
-19 10 -31 10 -12 0 -25 4 -30 9 -6 6 -22 12 -37 15 -27 5 -73 23 -143 57 -22
10 -46 19 -53 19 -7 0 -10 5 -7 10 3 6 -2 10 -12 10 -10 0 -29 7 -41 16 -12 8
-22 13 -22 10 0 -9 -134 64 -142 77 -4 7 -8 8 -8 2 0 -6 -3 -6 -8 0 -8 12 -59
46 -67 45 -5 0 -20 11 -51 39 -8 7 -17 11 -20 8 -3 -3 -14 2 -23 11 -32 30
-83 72 -88 72 -2 0 -10 6 -18 13 -23 22 -55 47 -60 47 -3 0 -16 10 -30 22
l-25 21 46 44 45 44 42 -33 c23 -18 47 -37 53 -43z m3174 -11 c0 -8 -73 -73
-82 -74 -7 0 -37 -25 -89 -72 -10 -10 -21 -18 -24 -18 -5 0 -92 -57 -120 -77
-5 -5 -27 -17 -47 -28 -21 -11 -38 -22 -38 -26 0 -6 -38 -19 -49 -18 -2 0 -7
-3 -10 -8 -5 -8 -161 -86 -226 -114 -58 -24 -95 -38 -95 -34 0 3 -16 -4 -35
-15 -24 -13 -35 -16 -35 -7 0 8 -3 8 -8 2 -11 -15 -62 -36 -73 -30 -5 4 -9 2
-9 -3 0 -9 -152 -48 -177 -45 -7 0 -13 -2 -13 -6 0 -3 -17 -7 -37 -9 -20 -1
-39 -6 -43 -10 -5 -7 -13 -8 -120 -16 -36 -2 -76 -9 -90 -14 -14 -5 -26 -6
-28 -1 -2 5 -12 4 -22 -1 -35 -19 -51 -2 -47 51 4 65 -1 62 107 74 30 4 73 9
95 11 22 3 54 6 72 7 18 2 35 6 39 10 4 4 20 7 36 7 15 0 28 4 28 8 0 5 6 9
13 10 29 4 62 10 62 12 0 1 9 3 20 5 51 9 151 37 169 48 12 6 24 11 27 12 6 0
103 42 131 56 10 5 25 9 33 9 8 0 15 5 15 12 0 6 3 9 6 6 8 -9 162 68 184 92
3 3 19 12 35 20 28 14 98 55 139 82 10 7 32 25 47 40 16 15 29 24 29 20 0 -4
4 -2 8 3 4 6 38 34 76 62 l68 53 39 -40 c22 -22 39 -43 39 -46z m-2085 50 c22
-4 43 -8 48 -9 4 -2 14 -3 22 -4 9 -1 15 -11 15 -27 0 -20 -4 -24 -17 -20 -10
3 -23 2 -28 -2 -12 -8 -41 -93 -37 -106 2 -5 -1 -21 -7 -35 -5 -14 -12 -42
-14 -61 -3 -19 -8 -47 -12 -62 -5 -21 -3 -27 13 -32 21 -7 38 -36 21 -36 -6 0
-7 -5 -4 -10 4 -7 -3 -9 -22 -6 -15 2 -28 5 -28 6 0 1 -13 3 -30 5 -59 8 -75
15 -75 35 0 25 17 35 35 20 11 -9 16 -4 24 27 6 21 11 44 11 51 0 6 6 12 13
13 9 0 9 2 0 6 -9 3 -8 11 5 31 9 14 11 23 5 19 -10 -6 -11 -2 -4 16 6 14 7
28 4 31 -4 3 -1 6 6 6 7 0 10 4 7 8 -3 5 -1 26 5 46 9 32 8 40 -8 51 -10 7
-22 11 -27 7 -5 -3 -6 2 -3 12 4 10 7 22 7 27 0 6 8 8 18 6 9 -3 35 -9 57 -13z
m782 -40 c35 -22 57 -44 46 -44 -4 0 0 -5 10 -11 9 -6 15 -14 12 -19 -3 -5 -1
-11 5 -15 5 -3 10 -17 10 -30 0 -13 5 -27 10 -30 7 -5 8 -11 1 -19 -6 -6 -6
-18 -1 -25 4 -8 4 -26 0 -40 -5 -14 -11 -39 -14 -54 -9 -41 -55 -84 -97 -91
-34 -5 -35 -4 -35 25 0 19 4 28 12 25 12 -5 54 37 54 54 0 6 4 10 8 10 12 0 5
115 -8 140 -6 11 -8 20 -4 20 4 0 -6 12 -22 27 -16 15 -28 29 -26 32 4 6 -31
20 -39 15 -10 -5 -42 34 -36 43 10 15 85 7 114 -13z m-470 1 c18 -4 20 -8 10
-29 -6 -13 -17 -22 -23 -19 -20 7 -27 -15 -31 -101 -2 -44 -5 -100 -7 -124 -2
-24 -1 -54 2 -68 4 -21 9 -24 33 -20 16 2 31 0 34 -5 3 -4 17 -3 30 3 23 10
31 33 26 75 -1 6 3 14 8 17 5 3 7 15 4 25 -4 15 -1 19 14 15 17 -5 19 -13 16
-62 -2 -31 -4 -71 -4 -89 -1 -31 -23 -51 -35 -32 -3 5 -14 7 -24 4 -10 -3 -21
-1 -25 5 -4 6 -13 7 -23 2 -14 -7 -77 -8 -77 -2 0 2 -20 3 -44 4 -35 2 -46 7
-52 24 -6 17 -5 22 7 22 8 0 24 5 35 11 16 8 18 14 9 24 -6 7 -7 16 -2 19 4 2
9 47 11 98 1 51 5 96 7 100 11 17 -8 66 -26 71 -14 4 -21 30 -11 43 2 3 119
-7 138 -11z m310 -21 c-2 -13 -1 -24 4 -24 5 0 8 -12 8 -27 1 -50 7 -108 13
-118 3 -5 4 -19 2 -29 -1 -11 0 -25 4 -30 4 -6 7 -22 8 -36 1 -14 2 -41 4 -60
3 -56 2 -59 -25 -54 -14 2 -35 -1 -46 -7 -24 -13 -28 -10 -35 25 -3 19 -1 24
10 20 7 -3 16 2 20 11 3 10 11 13 18 9 9 -5 9 -3 -1 9 -7 9 -11 17 -7 17 3 0
1 11 -4 25 -7 17 -6 25 1 25 8 0 8 4 1 13 -6 7 -13 39 -14 70 -2 31 -6 57 -9
57 -4 0 -5 10 -5 23 3 29 -11 57 -29 57 -15 0 -49 30 -41 37 3 3 24 7 47 9 24
2 45 6 47 8 12 13 33 -9 29 -30z"/>
<path d="M3713 3173 c-7 -3 -13 -10 -13 -17 0 -7 -8 -21 -17 -32 -34 -36 -26
-53 38 -80 14 -6 59 46 59 67 0 32 -42 71 -67 62z"/>
<path d="M3615 3013 c-11 -14 -24 -31 -30 -38 -5 -6 -15 -20 -22 -32 -11 -18
-9 -23 12 -37 13 -9 29 -16 35 -16 5 0 10 -4 10 -9 0 -5 9 -7 20 -4 12 3 18 8
16 11 -3 3 3 12 14 22 35 30 35 62 -2 97 l-34 33 -19 -27z"/>
</g>
</svg>
